<?xml version="1.0" encoding="UTF-8" standalone="no"?>
<!-- Created with Inkscape (http://www.inkscape.org/) -->

<svg
   width="128"
   height="128"
   viewBox="0 0 33.866666 33.866666"
   version="1.1"
   id="svg5"
   xml:space="preserve"
   inkscape:version="1.2.2 (732a01da63, 2022-12-09, custom)"
   sodipodi:docname="logo-night.svg"
   inkscape:export-filename="../9b4aff8e/logo-night-256.png"
   inkscape:export-xdpi="192"
   inkscape:export-ydpi="192"
   xmlns:inkscape="http://www.inkscape.org/namespaces/inkscape"
   xmlns:sodipodi="http://sodipodi.sourceforge.net/DTD/sodipodi-0.dtd"
   xmlns:xlink="http://www.w3.org/1999/xlink"
   xmlns="http://www.w3.org/2000/svg"
   xmlns:svg="http://www.w3.org/2000/svg"><sodipodi:namedview
     id="namedview7"
     pagecolor="#ffffff"
     bordercolor="#666666"
     borderopacity="1.0"
     inkscape:showpageshadow="2"
     inkscape:pageopacity="0.0"
     inkscape:pagecheckerboard="0"
     inkscape:deskcolor="#d1d1d1"
     inkscape:document-units="px"
     showgrid="false"
     inkscape:zoom="3.3638608"
     inkscape:cx="109.54674"
     inkscape:cy="66.73879"
     inkscape:window-width="1920"
     inkscape:window-height="1052"
     inkscape:window-x="1920"
     inkscape:window-y="0"
     inkscape:window-maximized="1"
     inkscape:current-layer="layer2" /><defs
     id="defs2"><linearGradient
       inkscape:collect="always"
       id="linearGradient4899"><stop
         style="stop-color:#878787;stop-opacity:1;"
         offset="0"
         id="stop4895" /><stop
         style="stop-color:#515151;stop-opacity:1;"
         offset="1"
         id="stop4897" /></linearGradient><linearGradient
       inkscape:collect="always"
       id="linearGradient4846"><stop
         style="stop-color:#4b4b4b;stop-opacity:1;"
         offset="0"
         id="stop4842" /><stop
         style="stop-color:#000000;stop-opacity:1;"
         offset="1"
         id="stop4844" /></linearGradient><linearGradient
       inkscape:collect="always"
       xlink:href="#linearGradient4846"
       id="linearGradient4848"
       x1="17.284361"
       y1="28.355183"
       x2="17.284367"
       y2="23.242628"
       gradientUnits="userSpaceOnUse"
       gradientTransform="matrix(1.109063,0,0,1.109063,-11.961711,-0.97928526)" /><linearGradient
       inkscape:collect="always"
       xlink:href="#linearGradient4846"
       id="linearGradient4856"
       x1="1.2191472"
       y1="26.762249"
       x2="1.3371292"
       y2="23.458754"
       gradientUnits="userSpaceOnUse"
       gradientTransform="matrix(1.109063,0,0,1.109063,-11.961711,-0.97928526)" /><linearGradient
       inkscape:collect="always"
       xlink:href="#linearGradient4899"
       id="linearGradient4901"
       x1="16.712982"
       y1="7.2858582"
       x2="16.712982"
       y2="10.845362"
       gradientUnits="userSpaceOnUse"
       gradientTransform="matrix(1.109063,0,0,1.109063,-11.961711,-0.97928526)" /></defs><g
     inkscape:groupmode="layer"
     id="layer2"
     inkscape:label="Layer 3"
     style="display:inline"><rect
       style="display:inline;vector-effect:non-scaling-stroke;fill:#000000;fill-opacity:0.947214;stroke-width:0.264583;stroke-linecap:round;-inkscape-stroke:hairline"
       id="rect1086"
       width="39.170021"
       height="38.068855"
       x="35.001324"
       y="-0.15730935"
       rx="0.43260109"
       ry="0.4723649" /></g><g
     inkscape:label="Layer 1"
     inkscape:groupmode="layer"
     id="layer1"
     style="display:inline"><path
       style="display:inline;vector-effect:non-scaling-stroke;fill:url(#linearGradient4856);fill-opacity:1;stroke:none;stroke-width:0.264583;stroke-linecap:butt;stroke-linejoin:miter;stroke-dasharray:none;stroke-opacity:1;-inkscape-stroke:hairline"
       d="M -7.8617619,25.146992 V 25.88847 H -8.254311 v 0.741481 l -0.7414786,0.04362 -0.08723,-0.697864 h -0.218083 c 0,0 0.130849,1.264878 -0.130849,1.657427 -0.2395087,0.359265 -1.1776464,0.174462 -1.1776464,0.174462 0,0 -0.130848,0.697865 -0.392546,0.697863 -0.667205,-3e-6 -0.785098,0.08723 -0.785098,0.08723 l -0.04361,0.567016 -0.697863,-0.04362 0.08723,-4.36165 z"
       id="path4644"
       sodipodi:nodetypes="cccccccscsccccc" /><path
       id="path4642"
       style="display:inline;vector-effect:non-scaling-stroke;fill:url(#linearGradient4848);fill-opacity:1;stroke:none;stroke-width:0.264583;stroke-linecap:butt;stroke-linejoin:miter;stroke-dasharray:none;stroke-opacity:1;-inkscape-stroke:hairline"
       d="m 13.239771,22.905524 a 3.6771161,3.6771161 0 0 0 -3.2401267,1.944169 l -9.10258716,0.112794 a 3.6771161,3.6771161 0 0 0 -3.27241954,-2.005013 3.6771161,3.6771161 0 0 0 -3.3145417,2.086449 l -1.2777039,0.01591 -0.3926716,0.218098 -0.5232501,1.046501 0.3486774,1.570218 0.8288695,-0.392203 0.5672442,0.741348 h 0.4361979 l 0.021997,4.68e-4 a 3.6771161,3.6771161 0 0 0 3.3051813,2.067728 3.6771161,3.6771161 0 0 0 3.24199754,-1.942297 l 0.27847606,0.0052 8.8105401,-0.08753 0.02855,-9.05e-4 a 3.6771161,3.6771161 0 0 0 3.2555707,1.973655 3.6771161,3.6771161 0 0 0 3.358536,-2.180522 l 0.336041,-0.01028 0.479724,-0.2181 1.0465,0.479724 v -0.610302 l -0.130579,-0.131047 0.08706,-0.82887 c 0,0 0.654258,-0.174324 1.35212,0.610771 0.697862,0.785097 0.741815,1.526693 0.741815,1.526693 l 2.311568,-0.697824 -0.523717,-1.221541 -1.87537,-0.174104 -0.348678,-0.698291 1.134021,-1.395645 -4.769625,0.05897 a 3.6771161,3.6771161 0 0 0 -3.199409,-1.864131 z" /><path
       style="vector-effect:non-scaling-stroke;fill:#313131;fill-opacity:1;stroke:none;stroke-width:0.264583;stroke-linecap:butt;stroke-linejoin:miter;stroke-dasharray:none;stroke-opacity:1;-inkscape-stroke:hairline"
       d="m -12.208442,22.706999 v 2.46732 l 33.062099,-0.123366 2.343959,-0.3701 -0.123369,-3.08415 -3.515931,-0.18505 -31.797599,0.894405 z"
       id="path4029"
       sodipodi:nodetypes="cccccccc" /><path
       style="vector-effect:non-scaling-stroke;fill:#ab0000;fill-opacity:1;stroke:none;stroke-width:0.264583;stroke-linecap:butt;stroke-linejoin:miter;stroke-dasharray:none;stroke-opacity:1;-inkscape-stroke:hairline"
       d="m -11.961711,10.987221 23.686283,-0.370096 v 6.044937 h 10.239383 l 0.740195,4.687908 c 0,0 -0.493462,0.3701 -0.986927,0.3701 -0.493464,0 -5.304741,0 -5.304741,0 l -0.123365,0.493464 -28.374194,0.123366 z"
       id="path4027" /><path
       style="vector-effect:non-scaling-stroke;fill:#1f1f1f;fill-opacity:1;stroke:none;stroke-width:0.264583;stroke-linecap:butt;stroke-linejoin:miter;stroke-dasharray:none;stroke-opacity:1;-inkscape-stroke:hairline"
       d="m 21.963955,16.662062 -0.863562,-5.659419 -1.357028,-0.262153 -8.14216,-0.123365 0.123367,6.044937 z"
       id="path4033"
       sodipodi:nodetypes="cccccc" /><path
       style="vector-effect:non-scaling-stroke;fill:#313131;fill-opacity:1;stroke:none;stroke-width:0.264583;stroke-linecap:butt;stroke-linejoin:miter;stroke-dasharray:none;stroke-opacity:1;-inkscape-stroke:hairline"
       d="m 22.519102,22.460266 h 2.405636 l 0.246736,-0.493465 0.863562,0.246733 -0.246732,0.61683 H 26.1584 V 22.3369 h 0.740197 v 1.973856 l -0.246733,0.246733 -0.616828,-0.493464 h -1.973861 l -0.339253,-0.09253 h -0.277576 l -0.400941,0.416358 z"
       id="path4042"
       sodipodi:nodetypes="cccccccccccccccc" /><path
       id="path4722"
       style="fill:#313131;fill-opacity:1;stroke:none;stroke-width:0.264583px;stroke-linecap:butt;stroke-linejoin:miter;stroke-opacity:1"
       d="m 6.5805758,4.037271 -0.272808,0.1066009 0.129527,0.3335583 -2.6965496,0.8642714 -0.115198,-0.1931431 -0.251029,0.1518781 0.972592,1.6156371 -0.598341,-0.058459 -0.0087,-0.095139 -0.653935,0.087115 v 0.047568 l -1.485538,0.145001 0.02808,0.2922935 1.457455,-0.1427079 v 0.094564 l -0.174802,0.2177872 0.261917,0.2183604 -0.21836,0.3484598 h 0.21836 l -0.08712,1.0230262 h 0.697491 l 0.04355,-1.0230262 0.305475,-0.087119 -0.349032,-0.3925898 0.174803,-0.2177873 -0.174803,-0.1312455 -0.0079,-0.087114 1.004112,0.097432 0.0053,0.095713 -0.184547,0.8321761 h 0.339262 L 4.7237682,8.627723 H 7.0059478 L 6.9136698,8.1190587 7.2833348,8.057158 V 7.9029904 l 0.432135,0.4011873 0.154172,-0.277966 0.9250231,-0.061323 0.8327484,-0.3392899 1.1720397,0.1541714 0.15417,0.2464426 0.925022,-0.030383 V 8.4583417 L 11.848275,8.8899039 12.742347,8.7047843 12.464955,8.3964434 12.7114,8.2422729 12.77329,7.6255916 12.662602,7.4530898 c 1.653034,-0.2923406 3.325534,-0.5009637 5.030309,-0.5759911 l -0.0035,-0.082529 0.04929,0.02923 0.0338,-0.2699416 5.74e-4,5.733e-4 0.13182,-0.2596252 -0.09457,-0.047568 0.02064,-0.1639135 -0.339289,-0.030948 -1.387536,-0.678579 -0.02235,-0.00114 -0.0745,-0.037828 -0.01663,0.03324 -0.472827,-0.024645 -0.02407,0.015475 V 5.3394107 L 7.1089558,5.3955767 Z M 6.5438958,4.7502375 6.7232838,5.20931 6.2579068,5.4018799 5.8951198,5.4041699 5.7610092,5.0012636 Z M 4.6726502,5.3502986 4.7110402,6.0369014 4.2691612,6.2185818 3.8966342,5.5990346 Z M 13.620267,5.6471769 7.3319468,5.9675533 7.2236258,5.6878689 Z m -6.7107112,0.042984 0.115196,0.2922935 -0.921009,0.046996 -0.07279,-0.2172141 0.285415,-0.1174904 z m 8.0311892,0.1816804 0.06247,0.031523 -6.3135371,0.5364439 -0.141561,-0.2023129 -0.3117781,-0.0235 z m 1.595005,0.2424316 0.821287,0.4842899 c -1.648781,0.088732 -3.265413,0.2987918 -4.86239,0.5851602 l -0.06075,-0.4837168 2.004786,-0.2464434 0.09227,0.1851191 c 0,0 0.956183,-0.1541703 1.01787,-0.1541703 0.06169,0 0.61668,0.1232218 0.61668,0.1232218 z M 4.7288112,6.3481081 4.7626232,6.9556198 4.5161802,6.931548 4.6502922,6.8513107 4.4227612,6.4741949 Z m -10.7151303,0.4143685 -0.087115,0.479705 c -0.011256,0.3902017 -0.023533,0.7792279 -0.2619173,0.8287378 l 0.3490323,1.1542716 h 0.479705 l 0.043557,-0.9794681 0.3490327,-0.2183606 -0.3054752,-0.3049026 0.2183605,-0.1312455 -0.1306725,-0.2613447 0.043557,-0.5673929 z"
       sodipodi:nodetypes="cccccccccccccccccccccccccccccccccccccccccccccccccccccccccccccccccccccccccccccccccccccccccccccccccccccscccccccccccccccccccc" /><path
       style="vector-effect:non-scaling-stroke;fill:#ffffff;fill-opacity:1;stroke:none;stroke-width:0.264583;stroke-linecap:butt;stroke-linejoin:miter;stroke-dasharray:none;stroke-opacity:1;-inkscape-stroke:hairline"
       d="m 4.4922372,12.405932 -2.559847,-0.03085 3.608458,3.639299 -4.317812,0.03084 V 12.34424 h -2.3131141 l -0.030841,3.700982 -4.2252875,0.12337 3.4850909,-3.762665 -2.4056378,3e-6 -4.4720206,4.533702 4.441179,4.441179 2.5906873,-0.03084 -3.4542497,-3.423406 4.19444576,-0.03084 -0.092525,3.485091 2.2822727,-0.06169 0.03085,-3.392565 4.163604,-0.09254 -3.48509,3.454249 2.559847,0.06169 4.5028604,-4.564546 z"
       id="path4524"
       sodipodi:nodetypes="ccccccccccccccccccccccc" /><rect
       style="vector-effect:non-scaling-stroke;fill:#ffffff;fill-opacity:0.733333;stroke:none;stroke-width:0.264583;stroke-linecap:round;stroke-dasharray:none;stroke-opacity:1;-inkscape-stroke:hairline"
       id="rect4698"
       width="7.750896"
       height="4.1146955"
       x="-0.61621726"
       y="-9.1601372"
       ry="0.4723649"
       rx="0.43260109" /><rect
       style="vector-effect:non-scaling-stroke;fill:#ffffff;fill-opacity:0.733333;stroke:none;stroke-width:0.264583;stroke-linecap:round;stroke-dasharray:none;stroke-opacity:1;-inkscape-stroke:hairline"
       id="rect4700"
       width="2.3860681"
       height="4.2019281"
       x="12.812655"
       y="11.500304"
       ry="0.4723649"
       rx="0.43260109" /><path
       style="vector-effect:non-scaling-stroke;fill:#ffffff;fill-opacity:0.733333;stroke:none;stroke-width:0.264583;stroke-linecap:butt;stroke-linejoin:miter;stroke-dasharray:none;stroke-opacity:1;-inkscape-stroke:hairline"
       d="m 18.17728,11.364181 0.13085,4.579731 c 0,0 -0.04362,0.392548 0.305319,0.392548 0.348929,0 2.148112,0.02181 2.148112,0.02181 l 0.338027,0.152657 0.839616,0.01086 -0.796002,-5.299404 C 20.999699,11.1233 20.731682,10.966538 20.227256,10.97159 h -1.613807 c -0.270463,-0.02996 -0.36662,0.164196 -0.436169,0.392556 z"
       id="path4702"
       sodipodi:nodetypes="ccsccccccc" /><path
       style="vector-effect:non-scaling-stroke;fill:url(#linearGradient4901);fill-opacity:1;stroke:none;stroke-width:0.264583;stroke-linecap:butt;stroke-linejoin:miter;stroke-dasharray:none;stroke-opacity:1;-inkscape-stroke:hairline"
       d="M -11.961711,10.987221 V 7.1628749 h 3.0841505 l 1.0486114,1.5112345 2.2822721,-0.030835 1.2336609,-1.4803924 h 6.2916693 l 0.801879,1.3878683 8.6356238,-0.061691 0.185049,0.1542071 1.079452,-0.030834 0.03085,0.2775733 4.780434,0.061691 0.863563,0.092525 1.634602,0.5859889 0.832717,0.8944044 0.06169,0.462622 z"
       id="path4040"
       sodipodi:nodetypes="cccccccccccccccccc" /></g><g
     inkscape:groupmode="layer"
     id="layer7"
     inkscape:label="Layer 2"
     style="display:inline"><rect
       style="vector-effect:non-scaling-stroke;fill:#a3a3a3;fill-opacity:1;stroke:none;stroke-width:0.264583;stroke-linecap:round;stroke-dasharray:none;stroke-opacity:1;-inkscape-stroke:hairline"
       id="rect4956"
       width="18.813324"
       height="1.7888077"
       x="-7.3354845"
       y="8.766634"
       rx="0.43260103"
       ry="0.4723649" /><g
       id="g4969"
       style="fill:none;stroke:#a3a3a3;stroke-width:0.901662;stroke-opacity:1"
       transform="matrix(1.1090631,0,0,1.1090631,-11.96171,-0.97928512)"><path
         style="fill:none;stroke:#a3a3a3;stroke-width:0.238563px;stroke-linecap:butt;stroke-linejoin:miter;stroke-opacity:1"
         d="m 21.57949,13.737459 v 8.565056"
         id="path4960" /><path
         style="fill:none;stroke:#a3a3a3;stroke-width:0.238563px;stroke-linecap:butt;stroke-linejoin:miter;stroke-opacity:1"
         d="m 25.305846,13.737459 0.05562,8.565056"
         id="path4962" /></g><path
       style="vector-effect:non-scaling-stroke;fill:#a3a3a3;fill-opacity:1;stroke:none;stroke-width:0.264583;stroke-linecap:butt;stroke-linejoin:miter;stroke-dasharray:none;stroke-opacity:1;-inkscape-stroke:hairline"
       d="m 16.427903,22.167271 4.64165,-0.01541 2.035537,-0.138789 -0.06169,0.277573 1.387872,-0.07711 0.06169,0.740197 h 0.308418 c -0.0256,-0.411222 -0.07109,-0.822442 0.0617,-1.233661 -1.208853,0.006 -0.963488,-0.17765 -1.603757,-0.107945 l -0.601409,-0.154214 c -0.513917,0.12856 -1.080069,0.231006 -1.757968,0.277575 l -4.487439,0.06169 z"
       id="path4964"
       sodipodi:nodetypes="ccccccccccccc" /></g><g
     inkscape:groupmode="layer"
     id="layer3"
     inkscape:label="Layer 4"><path
       style="fill:#fffcef;stroke:none;stroke-width:0.264583px;stroke-linecap:butt;stroke-linejoin:miter;stroke-opacity:1;fill-opacity:0.94721407"
       d="M 22.10196,19.663665 38.934057,12.270128 39.091366,32.091103 22.10196,21.394068 Z"
       id="path1354"
       sodipodi:nodetypes="ccccc" /></g></svg>
