<?xml version="1.0" encoding="UTF-8" standalone="no"?>
<!-- Created with Inkscape (http://www.inkscape.org/) -->

<svg
   width="128"
   height="128"
   viewBox="0 0 33.866666 33.866666"
   version="1.1"
   id="svg5"
   xml:space="preserve"
   inkscape:version="1.2.2 (732a01da63, 2022-12-09, custom)"
   sodipodi:docname="logo-night.svg"
   inkscape:export-filename="../331ac5f8/logo-night-128.png"
   inkscape:export-xdpi="96"
   inkscape:export-ydpi="96"
   xmlns:inkscape="http://www.inkscape.org/namespaces/inkscape"
   xmlns:sodipodi="http://sodipodi.sourceforge.net/DTD/sodipodi-0.dtd"
   xmlns:xlink="http://www.w3.org/1999/xlink"
   xmlns="http://www.w3.org/2000/svg"
   xmlns:svg="http://www.w3.org/2000/svg"><sodipodi:namedview
     id="namedview7"
     pagecolor="#ffffff"
     bordercolor="#666666"
     borderopacity="1.0"
     inkscape:showpageshadow="2"
     inkscape:pageopacity="0.0"
     inkscape:pagecheckerboard="0"
     inkscape:deskcolor="#d1d1d1"
     inkscape:document-units="px"
     showgrid="false"
     inkscape:zoom="3.3638608"
     inkscape:cx="100.62842"
     inkscape:cy="75.062559"
     inkscape:window-width="1920"
     inkscape:window-height="1052"
     inkscape:window-x="1920"
     inkscape:window-y="0"
     inkscape:window-maximized="1"
     inkscape:current-layer="layer1" /><defs
     id="defs2"><linearGradient
       inkscape:collect="always"
       id="linearGradient4899"><stop
         style="stop-color:#878787;stop-opacity:1;"
         offset="0"
         id="stop4895" /><stop
         style="stop-color:#515151;stop-opacity:1;"
         offset="1"
         id="stop4897" /></linearGradient><linearGradient
       inkscape:collect="always"
       id="linearGradient4846"><stop
         style="stop-color:#4b4b4b;stop-opacity:1;"
         offset="0"
         id="stop4842" /><stop
         style="stop-color:#000000;stop-opacity:1;"
         offset="1"
         id="stop4844" /></linearGradient><linearGradient
       inkscape:collect="always"
       xlink:href="#linearGradient4846"
       id="linearGradient4848"
       x1="17.284361"
       y1="28.355183"
       x2="17.284367"
       y2="23.242628"
       gradientUnits="userSpaceOnUse"
       gradientTransform="matrix(0.89666292,0,0,0.89666292,-1.6014456,3.1276373)" /><linearGradient
       inkscape:collect="always"
       xlink:href="#linearGradient4846"
       id="linearGradient4856"
       x1="1.2191472"
       y1="26.762249"
       x2="1.3371292"
       y2="23.458754"
       gradientUnits="userSpaceOnUse"
       gradientTransform="matrix(0.89666292,0,0,0.89666292,-1.6014456,3.1276373)" /><linearGradient
       inkscape:collect="always"
       xlink:href="#linearGradient4899"
       id="linearGradient4901"
       x1="16.712982"
       y1="7.2858582"
       x2="16.712982"
       y2="10.845362"
       gradientUnits="userSpaceOnUse"
       gradientTransform="matrix(0.89666292,0,0,0.89666292,-1.6014456,3.1276373)" /></defs><g
     inkscape:groupmode="layer"
     id="layer2"
     inkscape:label="Layer 3"><rect
       style="vector-effect:non-scaling-stroke;fill:#000000;fill-opacity:1;stroke:#a3a3a3;stroke-width:0.264583;stroke-linecap:round;-inkscape-stroke:hairline"
       id="rect944"
       width="37.439617"
       height="37.754234"
       x="-1.3371292"
       y="-1.4944382"
       rx="0.43260103"
       ry="0.4723649" /></g><g
     inkscape:label="Layer 1"
     inkscape:groupmode="layer"
     id="layer1"
     style="display:inline"><path
       style="display:inline;vector-effect:non-scaling-stroke;fill:url(#linearGradient4856);fill-opacity:1;stroke:none;stroke-width:0.264583;stroke-linecap:butt;stroke-linejoin:miter;stroke-dasharray:none;stroke-opacity:1;-inkscape-stroke:hairline"
       d="m 1.7133103,24.25039 v 0.599475 H 1.3959395 v 0.599478 l -0.59947603,0.03527 -0.0705282,-0.564214 H 0.54961828 c 0,0 0.10578975,1.022638 -0.10578981,1.340008 -0.19363993,0.290461 -0.95211175,0.141051 -0.95211175,0.141051 0,0 -0.105789,0.564214 -0.3173687,0.564213 -0.53942642,-3e-6 -0.63474172,0.07052 -0.63474172,0.07052 l -0.035257,0.458425 -0.5642131,-0.03527 0.070528,-3.526337 z"
       id="path4644"
       sodipodi:nodetypes="cccccccscsccccc" /><path
       id="path4642"
       style="display:inline;vector-effect:non-scaling-stroke;fill:url(#linearGradient4848);fill-opacity:1;stroke:none;stroke-width:0.264583;stroke-linecap:butt;stroke-linejoin:miter;stroke-dasharray:none;stroke-opacity:1;-inkscape-stroke:hairline"
       d="m 18.773624,22.438193 a 2.9729002,2.9729002 0 0 0 -2.6196,1.571835 l -7.3593231,0.09119 A 2.9729002,2.9729002 0 0 0 6.1489924,22.480193 2.9729002,2.9729002 0 0 0 3.4692289,24.16706 l -1.0330069,0.01286 -0.3174699,0.17633 -0.4230408,0.846082 0.2819011,1.269501 0.6701301,-0.317091 0.4586096,0.59937 h 0.3526602 l 0.017784,3.78e-4 a 2.9729002,2.9729002 0 0 0 2.6721958,1.671731 2.9729002,2.9729002 0 0 0 2.6211127,-1.570322 l 0.2251442,0.0042 7.123207,-0.07077 0.02308,-7.32e-4 a 2.9729002,2.9729002 0 0 0 2.632085,1.595674 2.9729002,2.9729002 0 0 0 2.715333,-1.762923 l 0.271685,-0.0083 0.38785,-0.176331 0.846082,0.38785 v -0.493421 l -0.105572,-0.10595 0.07039,-0.67013 c 0,0 0.528959,-0.140939 1.093172,0.4938 0.564212,0.634741 0.599747,1.234311 0.599747,1.234311 l 1.868873,-0.564181 -0.423419,-0.9876 -1.516212,-0.140761 -0.281901,-0.564559 0.916841,-1.128361 -3.85618,0.04768 a 2.9729002,2.9729002 0 0 0 -2.58668,-1.507126 z" /><path
       style="vector-effect:non-scaling-stroke;fill:#313131;fill-opacity:1;stroke:none;stroke-width:0.264583;stroke-linecap:butt;stroke-linejoin:miter;stroke-dasharray:none;stroke-opacity:1;-inkscape-stroke:hairline"
       d="m -1.8009243,22.277688 v 1.994796 l 26.7302753,-0.09974 1.89506,-0.299221 -0.09974,-2.493495 -2.842584,-0.149611 -25.7079439,0.723115 z"
       id="path4029"
       sodipodi:nodetypes="cccccccc" /><path
       style="vector-effect:non-scaling-stroke;fill:#6f0000;fill-opacity:1;stroke:none;stroke-width:0.264583;stroke-linecap:butt;stroke-linejoin:miter;stroke-dasharray:none;stroke-opacity:1;-inkscape-stroke:hairline"
       d="M -1.6014456,12.802401 17.548605,12.503183 v 4.887252 h 8.278407 l 0.598438,3.790113 c 0,0 -0.398957,0.299221 -0.797917,0.299221 -0.39896,0 -4.288814,0 -4.288814,0 l -0.09974,0.398959 -22.9401649,0.09974 z"
       id="path4027" /><path
       style="vector-effect:non-scaling-stroke;fill:#1f1f1f;fill-opacity:1;stroke:none;stroke-width:0.264583;stroke-linecap:butt;stroke-linejoin:miter;stroke-dasharray:none;stroke-opacity:1;-inkscape-stroke:hairline"
       d="m 25.827012,17.390435 -0.698178,-4.575565 -1.09714,-0.211948 -6.582829,-0.09974 0.09974,4.887252 z"
       id="path4033"
       sodipodi:nodetypes="cccccc" /><path
       style="vector-effect:non-scaling-stroke;fill:#313131;fill-opacity:1;stroke:none;stroke-width:0.264583;stroke-linecap:butt;stroke-linejoin:miter;stroke-dasharray:none;stroke-opacity:1;-inkscape-stroke:hairline"
       d="m 26.275841,22.078207 h 1.944926 l 0.199482,-0.39896 0.698179,0.199481 -0.19948,0.498699 h 0.299218 v -0.398959 h 0.59844 v 1.595836 l -0.199481,0.199481 -0.498697,-0.39896 h -1.595841 l -0.274281,-0.07481 h -0.224417 l -0.324156,0.33662 z"
       id="path4042"
       sodipodi:nodetypes="cccccccccccccccc" /><path
       id="path4722"
       style="fill:#313131;fill-opacity:1;stroke:none;stroke-width:0.264583px;stroke-linecap:butt;stroke-linejoin:miter;stroke-opacity:1"
       d="m 13.389752,7.1834574 -0.220562,0.086185 0.104721,0.2696776 -2.180126,0.6987521 -0.09314,-0.1561537 -0.202953,0.1227915 0.786328,1.3062214 -0.483751,-0.047263 -0.007,-0.076919 -0.528698,0.070431 v 0.038458 L 9.3635029,9.6128706 9.3862052,9.8491861 10.564539,9.7338086 v 0.076454 l -0.141326,0.1760778 0.211757,0.1765416 -0.176541,0.281725 h 0.176541 l -0.07043,0.827103 h 0.563912 l 0.03521,-0.827103 0.246972,-0.07043 -0.282188,-0.317403 0.141326,-0.1760787 -0.141326,-0.1061103 -0.0064,-0.070431 0.811812,0.078773 0.0043,0.077383 -0.149204,0.672804 h 0.274289 l -0.174689,0.361669 h 1.845112 l -0.07461,-0.411249 0.298869,-0.05005 v -0.124642 l 0.349376,0.324355 0.124646,-0.224732 0.747869,-0.04958 0.673266,-0.274312 0.947579,0.124646 0.124644,0.199245 0.747868,-0.02456 v 0.373935 l -0.02455,0.348913 0.722846,-0.149667 -0.224268,-0.24929 0.199248,-0.124645 0.05004,-0.498578 -0.08949,-0.1394658 c 1.336456,-0.2363536 2.688651,-0.4050226 4.066939,-0.4656813 l -0.0028,-0.066724 0.03985,0.023632 0.02733,-0.2182443 4.64e-4,4.635e-4 0.106574,-0.2099035 -0.07646,-0.038458 0.01669,-0.132522 -0.274311,-0.025021 -1.121804,-0.5486223 -0.01807,-9.216e-4 -0.06023,-0.030583 -0.01345,0.026874 -0.382274,-0.019925 -0.01946,0.012511 v -0.015757 l -6.779007,0.045409 z m -0.02966,0.5764241 0.145033,0.3711541 -0.376251,0.1556902 -0.293309,0.00185 -0.108427,-0.3257445 z M 11.847218,8.245023 11.878256,8.8001324 11.521003,8.9470186 11.21982,8.4461228 Z m 7.234032,0.2400223 -5.084025,0.2590201 -0.08758,-0.2261212 z m -5.425522,0.034752 0.09313,0.2363154 -0.744624,0.037996 -0.05885,-0.1756148 0.230754,-0.094989 z m 6.493111,0.1468862 0.05051,0.025486 -5.104412,0.4337079 -0.11445,-0.1635673 -0.252069,-0.019 z m 1.289541,0.1960028 0.663999,0.391542 c -1.333018,0.071739 -2.640043,0.2415693 -3.931178,0.4730944 l -0.04912,-0.3910787 1.620843,-0.1992463 0.0746,0.1496664 c 0,0 0.773062,-0.1246447 0.822935,-0.1246447 0.04988,0 0.498578,0.099623 0.498578,0.099623 z m -9.545756,0.1890527 0.02734,0.4911652 -0.199245,-0.019462 0.108427,-0.064871 -0.18396,-0.3048927 z M 3.2295812,9.3867505 3.15915,9.7745857 C 3.15005,10.090059 3.140124,10.404581 2.9473933,10.444609 l 0.2821881,0.933214 h 0.3878352 l 0.035215,-0.791887 0.2821883,-0.176542 -0.2469726,-0.24651 0.1765415,-0.10611 -0.1056469,-0.2112938 0.035215,-0.4587297 z"
       sodipodi:nodetypes="cccccccccccccccccccccccccccccccccccccccccccccccccccccccccccccccccccccccccccccccccccccccccccccccccccccscccccccccccccccccccc" /><path
       style="vector-effect:non-scaling-stroke;fill:#a4a4a4;fill-opacity:1;stroke:none;stroke-width:0.264583;stroke-linecap:butt;stroke-linejoin:miter;stroke-dasharray:none;stroke-opacity:1;-inkscape-stroke:hairline"
       d="m 11.701357,13.94941 -2.069603,-0.02494 2.917391,2.942326 -3.4908944,0.02493 V 13.899533 H 7.1881281 l -0.024935,2.992195 -3.4160896,0.09974 2.8176503,-3.042065 -1.9449267,2e-6 -3.6155701,3.665439 3.5906351,3.590635 2.0945368,-0.02493 -2.7927157,-2.767779 3.3911546,-0.02493 -0.074805,2.81765 1.8451876,-0.04988 0.024942,-2.742845 3.3662196,-0.07482 -2.8176499,2.792715 2.0696029,0.04988 3.640504,-3.690375 z"
       id="path4524"
       sodipodi:nodetypes="ccccccccccccccccccccccc" /><rect
       style="vector-effect:non-scaling-stroke;fill:#8d8d8d;fill-opacity:0.73333299;stroke:none;stroke-width:0.264583;stroke-linecap:round;stroke-dasharray:none;stroke-opacity:1;-inkscape-stroke:hairline"
       id="rect4698"
       width="6.2664981"
       height="3.3266776"
       x="4.9577017"
       y="13.428802"
       ry="0.4723649"
       rx="0.43260109" /><rect
       style="vector-effect:non-scaling-stroke;fill:#ffffff;fill-opacity:0.733333;stroke:none;stroke-width:0.264583;stroke-linecap:round;stroke-dasharray:none;stroke-opacity:1;-inkscape-stroke:hairline"
       id="rect4700"
       width="1.9291048"
       height="3.3972039"
       x="18.428307"
       y="13.217222"
       ry="0.4723649"
       rx="0.43260109" /><path
       style="vector-effect:non-scaling-stroke;fill:#ffffff;fill-opacity:0.733333;stroke:none;stroke-width:0.264583;stroke-linecap:butt;stroke-linejoin:miter;stroke-dasharray:none;stroke-opacity:1;-inkscape-stroke:hairline"
       d="m 22.765535,13.107168 0.105791,3.702652 c 0,0 -0.03527,0.31737 0.246846,0.31737 0.282105,0 1.73672,0.01763 1.73672,0.01763 l 0.273291,0.123422 0.678818,0.0088 -0.643557,-4.284516 c -0.11602,-0.08011 -0.332708,-0.206847 -0.74053,-0.202762 h -1.304742 c -0.218666,-0.02422 -0.296407,0.13275 -0.352637,0.317376 z"
       id="path4702"
       sodipodi:nodetypes="ccsccccccc" /><path
       style="vector-effect:non-scaling-stroke;fill:url(#linearGradient4901);fill-opacity:1;stroke:none;stroke-width:0.264583;stroke-linecap:butt;stroke-linejoin:miter;stroke-dasharray:none;stroke-opacity:1;-inkscape-stroke:hairline"
       d="M -1.6014456,12.802401 V 9.7104672 H 0.89205039 L 1.739839,10.932281 3.5850261,10.907351 4.5824247,9.7104731 h 5.0867324 l 0.6483089,1.1220739 6.981789,-0.04988 0.14961,0.124674 0.872722,-0.02493 0.02494,0.224414 3.864918,0.04988 0.69818,0.0748 1.321554,0.473765 0.673241,0.723114 0.04988,0.374024 z"
       id="path4040"
       sodipodi:nodetypes="cccccccccccccccccc" /></g><g
     inkscape:groupmode="layer"
     id="layer7"
     inkscape:label="Layer 2"
     style="display:inline"><rect
       style="vector-effect:non-scaling-stroke;fill:#a3a3a3;fill-opacity:1;stroke:none;stroke-width:0.264583;stroke-linecap:round;stroke-dasharray:none;stroke-opacity:1;-inkscape-stroke:hairline"
       id="rect4956"
       width="15.210326"
       height="1.4462277"
       x="2.1387985"
       y="11.007086"
       rx="0.43260103"
       ry="0.4723649" /><g
       id="g4969"
       style="fill:none;stroke:#a3a3a3;stroke-width:1.11525;stroke-opacity:1"
       transform="matrix(0.896663,0,0,0.896663,-1.6014447,3.1276375)"><path
         style="fill:none;stroke:#a3a3a3;stroke-width:0.295073px;stroke-linecap:butt;stroke-linejoin:miter;stroke-opacity:1"
         d="m 21.57949,13.737459 v 8.565056"
         id="path4960" /><path
         style="fill:none;stroke:#a3a3a3;stroke-width:0.295073px;stroke-linecap:butt;stroke-linejoin:miter;stroke-opacity:1"
         d="m 25.305846,13.737459 0.05562,8.565056"
         id="path4962" /></g><path
       style="vector-effect:non-scaling-stroke;fill:#a3a3a3;fill-opacity:1;stroke:none;stroke-width:0.264583;stroke-linecap:butt;stroke-linejoin:miter;stroke-dasharray:none;stroke-opacity:1;-inkscape-stroke:hairline"
       d="m 21.351187,21.841325 3.752713,-0.01246 1.645705,-0.112209 -0.04988,0.224414 1.122077,-0.06234 0.04988,0.598439 h 0.249352 c -0.0207,-0.332467 -0.05748,-0.664933 0.04988,-0.997399 -0.977342,0.0049 -0.778968,-0.143627 -1.296617,-0.08727 l -0.486231,-0.12468 c -0.415495,0.103939 -0.873222,0.186766 -1.421294,0.224416 l -3.628036,0.04988 z"
       id="path4964"
       sodipodi:nodetypes="ccccccccccccc" /></g><path
     style="fill:#ffffff;stroke:none;stroke-width:0.264583px;stroke-linecap:butt;stroke-linejoin:miter;stroke-opacity:1;fill-opacity:0.85923749"
     d="M 25.956038,20.371557 39.012711,12.82071 38.776748,29.18088 26.034693,21.315413 Z"
     id="path1158" /></svg>
